<svg width="30" height="30" viewBox="0 0 30 30" fill="none" xmlns="http://www.w3.org/2000/svg">
<path d="M15.1756 12.4431L6.85175 21.0603L8.421 22.5761L16.7449 13.9589L15.1756 12.4431Z" fill="black"/>
<path d="M19.2552 17.6199C20.2757 16.5962 20.8481 15.2091 20.8466 13.7636C20.8451 12.318 20.2699 10.9321 19.2472 9.91045C18.2246 8.88875 16.8382 8.31478 15.3927 8.31462C13.9471 8.31446 12.5606 8.88814 11.5377 9.90961L6.43036 15.017C5.65933 15.7922 4.74221 16.4068 3.73206 16.8252C2.72192 17.2436 1.63882 17.4575 0.545455 17.4545H0V19.6364H0.545455C1.92547 19.6401 3.29254 19.3702 4.56751 18.842C5.84248 18.3139 7.00004 17.5382 7.97318 16.5597L13.0805 11.4524C13.6942 10.8386 14.5267 10.4938 15.3947 10.4938C16.2627 10.4938 17.0951 10.8386 17.7089 11.4524C18.3226 12.0661 18.6674 12.8986 18.6674 13.7666C18.6674 14.6345 18.3226 15.467 17.7089 16.0807L13.0582 20.8122C11.3264 22.5659 10.3578 24.933 10.3636 27.3976V30H12.5455V27.3976C12.541 25.5054 13.2846 23.688 14.6142 22.3416L19.2552 17.6199Z" fill="black"/>
<path d="M23.8049 20.7854C22.4502 22.2582 18.1795 26.5809 18.1364 26.624L18.1296 26.6309C18.0541 26.7086 17.964 26.7707 17.8645 26.8136C17.7649 26.8565 17.658 26.8794 17.5496 26.8809C17.4412 26.8825 17.3336 26.8627 17.2329 26.8227C17.1322 26.7826 17.0403 26.7232 16.9626 26.6476C16.8849 26.5721 16.8228 26.482 16.7799 26.3825C16.737 26.283 16.7141 26.176 16.7125 26.0676C16.711 25.9592 16.7308 25.8516 16.7708 25.7509C16.8108 25.6502 16.8703 25.5584 16.9458 25.4806L22.3427 19.9319C23.2031 19.0709 23.8855 18.0488 24.3508 16.9241C24.8162 15.7993 25.0555 14.5939 25.055 13.3767C25.0545 12.1595 24.8142 10.9543 24.3479 9.82991C23.8815 8.70555 23.1983 7.68406 22.3372 6.82376C18.7217 3.20842 12.839 3.20842 9.22357 6.82376L5.0372 11.1397C2.84939 13.0909 2.06932 13.0909 0 13.0909V15.2727C2.4917 15.2727 3.80973 15.1651 6.52009 12.7405L6.54893 12.7147L10.772 8.3612C12.1025 7.0321 13.9065 6.286 15.7872 6.28702C17.6678 6.28804 19.4711 7.03611 20.8002 8.36665C22.1293 9.69719 22.8754 11.5012 22.8743 13.3819C22.8733 15.2625 22.1252 17.0657 20.7947 18.3948L15.3818 23.9596C14.8255 24.531 14.519 25.3001 14.5298 26.0976C14.5405 26.895 14.8676 27.6556 15.4391 28.2119C16.0105 28.7682 16.7796 29.0747 17.5771 29.064C18.3745 29.0532 19.1351 28.7261 19.6914 28.1546C19.9085 27.9349 24.0369 23.7562 25.4108 22.2624C27.7917 19.6736 29.4545 16.1264 29.4545 13.6364H27.2727C27.2727 15.5624 25.7819 18.6359 23.8049 20.7854Z" fill="black"/>
<path d="M25.7127 3.64773C23.3148 1.32955 20.3045 0 17.4545 0V2.18182C19.7442 2.18182 22.2015 3.2878 24.1963 5.21591C26.1227 7.07829 27.2727 9.41039 27.2727 11.4545H29.4545C29.4545 8.7917 28.0909 5.94614 25.7127 3.64773Z" fill="black"/>
<path d="M5.79239 7.73114C7.29682 5.65561 9.81484 2.18182 15.2727 2.18182V0C8.70164 0 5.65991 4.19625 4.0258 6.45068C2.91539 7.98259 1.59859 8.72727 0 8.72727V10.9091C2.28245 10.9091 4.28543 9.8102 5.79239 7.73114Z" fill="black"/>
<path d="M2.18182 21.2727H0V23.4546H2.18182C3.19411 23.4557 4.16461 23.8584 4.8804 24.5741C5.5962 25.2899 5.99884 26.2604 6 27.2727V30H8.18182V27.2727C8.18001 25.682 7.54729 24.1569 6.42246 23.0321C5.29764 21.9073 3.77256 21.2745 2.18182 21.2727Z" fill="black"/>
</svg>
