<svg width="30" height="30" viewBox="0 0 30 30" fill="none" xmlns="http://www.w3.org/2000/svg">
<path d="M14.6821 0.000961164C6.57114 0.000961164 0 6.88972 0 15.3798C0 22.1782 4.20641 27.9405 10.0361 29.9733C10.773 30.1185 11.0391 29.6427 11.0391 29.2313C11.0391 28.8661 11.0308 27.9001 11.0253 26.6179C6.93911 27.5444 6.07837 24.5504 6.07837 24.5504C5.40942 22.778 4.44407 22.3022 4.44407 22.3022C3.11535 21.3516 4.5496 21.3718 4.5496 21.3718C6.02148 21.4765 6.79596 22.9529 6.79596 22.9529C8.10541 25.3059 10.2316 24.6254 11.073 24.2293C11.2015 23.2384 11.5841 22.5569 12.0007 22.1772C8.74133 21.7918 5.31399 20.4702 5.31399 14.5772C5.31399 12.8942 5.88292 11.5235 6.82348 10.447C6.66106 10.0616 6.16371 8.49488 6.95287 6.37645C6.95287 6.37645 8.18157 5.96602 10.9904 7.95374C12.1659 7.61252 13.4139 7.44239 14.6609 7.43374C15.9089 7.44239 17.156 7.61348 18.3315 7.95374C21.1238 5.96602 22.3516 6.37645 22.3516 6.37645C23.1398 8.49488 22.6425 10.0606 22.4993 10.447C23.4307 11.5235 23.9997 12.8951 23.9997 14.5772C23.9997 20.4836 20.5677 21.786 17.3046 22.1619C17.8148 22.6223 18.2929 23.569 18.2929 25.006C18.2929 27.0629 18.2746 28.72 18.2746 29.2207C18.2746 29.6206 18.5315 30.1012 19.2876 29.9464C25.1605 27.9347 29.3623 22.1676 29.3623 15.3788C29.3623 6.88875 22.7911 0 14.6802 0L14.6821 0.000961164Z" fill="black"/>
</svg>
