<svg width="30" height="30" viewBox="0 0 30 30" fill="none" xmlns="http://www.w3.org/2000/svg">
<path d="M6.71595 30.0011H0.496089V9.97107H6.71595V30.0011ZM3.60227 7.23883C1.61363 7.23883 0 5.59091 0 3.60227C0 1.61363 1.61256 0 3.60227 0C5.59199 0 7.20454 1.61256 7.20454 3.60227C7.20454 5.59091 5.59091 7.23883 3.60227 7.23883ZM29.9946 30.0011H23.7887V20.2507C23.7887 17.9267 23.7416 14.947 20.555 14.947C17.3213 14.947 16.8252 17.4713 16.8252 20.0836V30.0011H10.6118V9.97107H16.5767V12.7033H16.6635C17.4938 11.1293 19.5221 9.46855 22.5479 9.46855C28.8428 9.46855 30 13.6141 30 18.9982V30.0011H29.9946Z" fill="black"/>
</svg>
