<svg width="37" height="30" viewBox="0 0 37 30" fill="none" xmlns="http://www.w3.org/2000/svg">
<path d="M36.8385 3.57439C35.481 4.16955 34.0277 4.57901 32.496 4.76471C34.0588 3.82699 35.2537 2.34371 35.8235 0.576701C34.3576 1.43022 32.7359 2.04844 31.0115 2.39792C29.6367 0.926182 27.6713 0 25.4902 0C21.3091 0 17.9204 3.38754 17.9204 7.56286C17.9204 8.16378 17.9931 8.74048 18.1188 9.2872C11.8293 8.99308 6.25375 5.97116 2.5248 1.406C1.86967 2.51788 1.49712 3.80969 1.49712 5.21569C1.49712 7.8466 2.83622 10.1534 4.86044 11.5098C3.62284 11.474 2.4579 11.1315 1.43714 10.5675V10.6586C1.43714 14.3276 4.04383 17.3864 7.50404 18.083C6.87313 18.2503 6.19954 18.3472 5.51557 18.3472C5.02999 18.3472 4.56632 18.2999 4.10381 18.2145C5.07728 21.218 7.8639 23.4048 11.1857 23.4706C8.60323 25.4948 5.32987 26.7013 1.80277 26.7013C1.20185 26.7013 0.602076 26.6724 0 26.5998C3.36448 28.7451 7.33564 30 11.6251 30C25.5433 30 33.1488 18.4717 33.1488 8.48789C33.1488 8.16955 33.1488 7.84544 33.1246 7.52018C34.609 6.46251 35.8939 5.12226 36.9089 3.60323L36.8385 3.57439Z" fill="black"/>
</svg>