<?xml version="1.0" standalone="no"?>
<!DOCTYPE svg PUBLIC "-//W3C//DTD SVG 20010904//EN"
 "http://www.w3.org/TR/2001/REC-SVG-20010904/DTD/svg10.dtd">
<svg version="1.0" xmlns="http://www.w3.org/2000/svg"
 width="288.000000pt" height="136.000000pt" viewBox="0 0 288.000000 136.000000"
 preserveAspectRatio="xMidYMid meet">
<metadata>
Created by potrace 1.15, written by Peter Selinger 2001-2017
</metadata>
<g transform="translate(0.000000,136.000000) scale(0.100000,-0.100000)"
fill="#fff" stroke="none">
<path d="M420 873 c-129 -86 -240 -162 -247 -169 -17 -16 -17 -52 0 -69 7 -7
122 -85 254 -173 179 -119 247 -159 263 -155 42 11 50 39 50 175 l0 128 489 0
490 0 151 -150 c125 -123 157 -150 180 -150 29 0 60 30 60 59 0 8 -61 76 -135
151 -74 75 -135 142 -135 150 0 8 61 75 135 150 74 75 135 143 135 151 0 28
-31 59 -58 59 -20 0 -59 -32 -177 -150 l-151 -150 -492 0 -492 0 0 130 c0 117
-2 132 -20 150 -11 11 -30 20 -43 20 -12 0 -127 -70 -257 -157z m200 -204 c0
-170 -1 -181 -18 -177 -27 7 -262 167 -262 178 0 12 250 180 267 180 10 0 13
-42 13 -181z"/>
<path d="M2223 867 c-149 -148 -163 -166 -163 -198 0 -32 14 -49 163 -197 130
-128 169 -162 190 -162 30 0 67 31 67 56 0 10 -48 66 -107 125 -71 73 -102
110 -92 113 8 3 102 7 210 8 210 3 229 8 229 58 0 50 -18 55 -244 60 l-211 5
108 111 c59 62 107 119 107 128 0 25 -37 56 -67 56 -22 0 -60 -32 -190 -163z"/>
</g>
</svg>
