<?xml version="1.0" standalone="no"?>
<!DOCTYPE svg PUBLIC "-//W3C//DTD SVG 20010904//EN"
 "http://www.w3.org/TR/2001/REC-SVG-20010904/DTD/svg10.dtd">
<svg version="1.0" xmlns="http://www.w3.org/2000/svg"
 width="225.000000pt" height="225.000000pt" viewBox="0 0 225.000000 225.000000"
 preserveAspectRatio="xMidYMid meet">
<metadata>
Created by potrace 1.15, written by Peter Selinger 2001-2017
</metadata>
<g transform="translate(0.000000,225.000000) scale(0.100000,-0.100000)"
fill="#fff" stroke="none">
<path d="M933 2078 l-173 -172 0 -646 0 -645 155 -155 155 -155 0 -132 c0
-120 2 -135 20 -153 11 -11 27 -20 35 -20 8 0 24 9 35 20 18 18 20 33 20 153
l0 132 155 155 155 155 0 645 0 646 -173 172 c-101 100 -181 172 -192 172 -11
0 -91 -72 -192 -172z m434 -195 c22 -21 23 -28 23 -165 l0 -143 -105 -105
-105 -105 0 260 c0 283 -4 305 -55 305 -51 0 -55 -22 -55 -305 l0 -260 -105
105 -105 105 0 143 0 144 133 128 132 129 109 -107 c60 -59 120 -117 133 -129z
m-297 -828 l0 -160 -105 105 -105 105 0 160 0 160 105 -105 105 -105 0 -160z
m215 -55 l-105 -105 0 160 0 160 103 103 102 102 3 -157 3 -157 -106 -106z
m-215 -405 l0 -150 -105 105 -105 105 0 150 0 150 105 -105 105 -105 0 -150z
m215 -45 l-105 -105 0 150 0 150 103 103 102 102 3 -147 3 -147 -106 -106z"/>
</g>
</svg>
